<svg width="140" height="100" viewBox="0 0 140 100" fill="none" xmlns="http://www.w3.org/2000/svg">
<path d="M99.1259 0C99.1259 26.2898 88.6823 51.5029 70.0926 70.0926C51.5029 88.6823 26.2898 99.1259 -2.28882e-05 99.1259V0L99.1259 0Z" fill="#3EB2C3"/>
<path d="M129.993 49.5635H99.8117C94.5267 49.5635 90.2423 53.8479 90.2423 59.1329C90.2423 64.418 94.5267 68.7023 99.8117 68.7023H129.993C135.278 68.7023 139.563 64.418 139.563 59.1329C139.563 53.8479 135.278 49.5635 129.993 49.5635Z" fill="#E95900"/>
<path d="M72.9381 68.6899C78.168 68.6899 82.4077 64.4502 82.4077 59.2203C82.4077 53.9904 78.168 49.7507 72.9381 49.7507C67.7082 49.7507 63.4686 53.9904 63.4686 59.2203C63.4686 64.4502 67.7082 68.6899 72.9381 68.6899Z" fill="white"/>
</svg>
