<svg width="202" height="266" viewBox="0 0 202 266" fill="none" xmlns="http://www.w3.org/2000/svg">
<path d="M50.581 55.3774L146.019 55.3774V36.4383L50.581 36.4383V55.3774Z" fill="#009456"/>
<path d="M84.2631 226.543V210.33C84.263 202.743 85.7574 195.23 88.6609 188.22C91.5644 181.21 95.8202 174.84 101.185 169.475C106.55 164.11 112.92 159.854 119.93 156.95C126.94 154.047 134.453 152.552 142.04 152.552V226.543H84.2631Z" fill="#FC9B00"/>
<path d="M201.6 0H141.756V226.255H201.6V0Z" fill="#DC001E"/>
<path d="M135.174 107.676H146.019C148.895 107.676 151.654 108.819 153.687 110.852C155.721 112.886 156.864 115.645 156.864 118.521C156.864 121.397 155.721 124.155 153.687 126.189C151.654 128.223 148.895 129.365 146.019 129.365H135.174V107.676Z" fill="#25ACBD"/>
<path d="M176.507 0H190.968L150.247 86.0038H135.786L176.507 0Z" fill="white"/>
<path d="M154.272 0H168.73L128.014 86.0038H113.553L154.272 0Z" fill="white"/>
<path d="M17.164 55.3774H36.1031V36.4383H17.164L17.164 55.3774Z" fill="#3EB2C3"/>
<path d="M45.3544 41.1081H56.322" stroke="white" stroke-width="2" stroke-linecap="round" stroke-linejoin="round"/>
<path d="M45.3544 45.215H56.322" stroke="white" stroke-width="2" stroke-linecap="round" stroke-linejoin="round"/>
<path d="M45.3544 49.3218H56.322" stroke="white" stroke-width="2" stroke-linecap="round" stroke-linejoin="round"/>
<path d="M142.04 258.984C135.603 258.984 129.31 257.076 123.958 253.499C118.606 249.923 114.434 244.84 111.971 238.892C109.507 232.945 108.863 226.401 110.118 220.087C111.374 213.774 114.474 207.974 119.026 203.423C123.578 198.871 129.377 195.771 135.691 194.515C142.004 193.259 148.548 193.904 154.496 196.367C160.443 198.831 165.526 203.002 169.103 208.355C172.679 213.707 174.588 220 174.588 226.437" stroke="white" stroke-width="2" stroke-linecap="round" stroke-linejoin="round"/>
<path d="M173.558 234.587C173.002 236.719 172.233 238.79 171.26 240.767" stroke="white" stroke-width="2" stroke-linecap="round" stroke-linejoin="round"/>
<path d="M142.04 247.439C153.639 247.439 163.042 238.036 163.042 226.437C163.042 214.838 153.639 205.435 142.04 205.435C130.441 205.435 121.038 214.838 121.038 226.437C121.038 238.036 130.441 247.439 142.04 247.439Z" fill="#009456"/>
<path d="M145.421 254.909L150.431 259.919L145.421 264.929" stroke="white" stroke-width="2" stroke-linecap="round" stroke-linejoin="round"/>
<path d="M6.01001 40.8977L11.0201 45.9078L6.01001 50.9179" stroke="white" stroke-width="2" stroke-linecap="round" stroke-linejoin="round"/>
<path d="M1 40.8977L6.01008 45.9078L1 50.9179" stroke="white" stroke-width="2" stroke-linecap="round" stroke-linejoin="round"/>
</svg>
