<svg width="116" height="134" viewBox="0 0 116 134" fill="none" xmlns="http://www.w3.org/2000/svg">
<path d="M116 24.6875H0V134.688H116V24.6875Z" fill="#009456"/>
<path d="M82.8421 8.99243V24.9435H49.6211V8.99243C49.6214 7.9118 49.8345 6.84187 50.2484 5.84363C50.6623 4.84539 51.2688 3.93849 52.0332 3.17468C52.7977 2.41088 53.7051 1.80512 54.7037 1.39209C55.7023 0.979066 56.7725 0.766801 57.8531 0.767458H74.6091C75.6898 0.76667 76.7601 0.97888 77.7588 1.39185C78.7575 1.80482 79.6651 2.4105 80.4296 3.17432C81.1942 3.93813 81.8008 4.84508 82.2147 5.84339C82.6286 6.84169 82.8418 7.91171 82.8421 8.99243Z" fill="white"/>
<path d="M82.8421 24.9435V73.3785C82.8416 75.5618 81.974 77.6555 80.4301 79.1992C78.8862 80.7429 76.7924 81.6102 74.6091 81.6105H57.8531C55.67 81.6099 53.5765 80.7425 52.0328 79.1989C50.4891 77.6552 49.6216 75.5616 49.6211 73.3785V24.9435H82.8421Z" fill="#FC9B00"/>
</svg>
