<svg width="128" height="128" viewBox="0 0 128 128" fill="none" xmlns="http://www.w3.org/2000/svg">
<circle cx="64" cy="64" r="64" fill="#52368C"/>
<g clip-path="url(#clip0_95_64)">
<path d="M98.298 43.2219C97.8618 42.9504 97.3158 42.9272 96.8593 43.1569L81.25 50.9615V48.9174C81.25 45.6544 78.5965 43.0007 75.3333 43.0007H60.5417C59.8628 43.0007 59.272 43.4629 59.1073 44.1216L57.6281 50.0383C57.5414 50.3807 57.5819 50.7418 57.7393 51.0581L60.221 56.0215L52.9175 63.3249L54.5802 56.6716C54.6885 56.2396 54.5962 55.7817 54.3288 55.4264L50.3145 50.0731L51.6218 44.8383C51.733 44.3962 51.6333 43.9282 51.353 43.57C51.0728 43.2103 50.6423 43.0009 50.1874 43.0009H35.6645C30.9367 43.0009 28 50.9355 28 63.7092C28 76.4828 30.9367 84.4174 35.6645 84.4174H75.3334C78.5965 84.4174 81.2501 81.764 81.2501 78.5007V76.4567L96.8595 84.2613C97.0689 84.3653 97.2942 84.4173 97.5211 84.4173C97.7912 84.4173 98.0613 84.3437 98.2982 84.1963C98.7344 83.9261 99.0003 83.4509 99.0003 82.9381V44.4801C99 43.9673 98.7342 43.492 98.298 43.2219ZM96.0417 80.5449L80.4324 72.7403C79.973 72.512 79.4284 72.5323 78.9937 72.8053C78.5574 73.0755 78.2916 73.5507 78.2916 74.0635V78.501C78.2916 80.1318 76.9641 81.4593 75.3333 81.4593H35.6645C33.7664 81.4593 30.9583 75.8185 30.9583 63.7093C30.9583 51.6 33.7664 45.9593 35.6645 45.9593H48.2924L47.274 50.0386C47.1657 50.4706 47.2581 50.9285 47.5254 51.2837L51.5397 56.637L48.7532 67.7886C48.5914 68.4329 48.8804 69.106 49.4581 69.4339C50.0344 69.759 50.761 69.6607 51.2334 69.1927L63.0667 57.3594C63.5173 56.9087 63.6285 56.2211 63.344 55.6519L60.6298 50.225L61.6973 45.9594H75.3333C76.9641 45.9594 78.2916 47.2869 78.2916 48.9177V53.3552C78.2916 53.868 78.5574 54.3433 78.9937 54.6134C79.4284 54.8835 79.9716 54.9038 80.4324 54.6784L96.0417 46.8738V80.5449Z" fill="white"/>
</g>
<defs>
<clipPath id="clip0_95_64">
<rect width="71" height="41" fill="white" transform="translate(28 43)"/>
</clipPath>
</defs>
</svg>
