<svg width="162" height="39" viewBox="0 0 162 39" fill="none" xmlns="http://www.w3.org/2000/svg">
<path fill-rule="evenodd" clip-rule="evenodd" d="M30.6222 26.2254L11.9102 37.5605C8.37589 39.4172 3.61428 37.974 1.27488 34.5005C0.443382 33.2877 0 31.9203 0 30.56L0 8.19308C0 4.36599 3.43594 0.887032 7.67438 0.422601C9.18086 0.257527 10.654 0.522257 11.9102 1.19254L30.6222 12.5277C34.1565 14.953 35.1252 20.1446 32.7858 23.9599C32.2172 24.8737 31.4813 25.6442 30.6222 26.2254Z" fill="white"/>
<path d="M67.6924 22.6582C67.6924 21.7174 67.3604 20.998 66.6963 20.5C66.0322 19.9909 64.8369 19.4596 63.1104 18.9062C61.3838 18.3418 60.0169 17.7884 59.0098 17.2461C56.265 15.763 54.8926 13.7653 54.8926 11.2529C54.8926 9.94694 55.2578 8.78483 55.9883 7.7666C56.7298 6.7373 57.7868 5.9349 59.1592 5.35938C60.5426 4.78385 62.0921 4.49609 63.8076 4.49609C65.5342 4.49609 67.0726 4.81152 68.4229 5.44238C69.7731 6.06217 70.819 6.94206 71.5605 8.08203C72.3132 9.22201 72.6895 10.5169 72.6895 11.9668H67.709C67.709 10.86 67.3604 10.0023 66.6631 9.39355C65.9658 8.77376 64.9863 8.46387 63.7246 8.46387C62.5072 8.46387 61.5609 8.72396 60.8857 9.24414C60.2106 9.75326 59.873 10.4284 59.873 11.2695C59.873 12.0553 60.266 12.7139 61.0518 13.2451C61.8486 13.7764 63.0163 14.2744 64.5547 14.7393C67.388 15.5915 69.4521 16.6484 70.7471 17.9102C72.042 19.1719 72.6895 20.7435 72.6895 22.625C72.6895 24.7168 71.8981 26.3604 70.3154 27.5557C68.7327 28.7399 66.6022 29.332 63.9238 29.332C62.0645 29.332 60.3711 28.9945 58.8438 28.3193C57.3164 27.6331 56.1488 26.6979 55.3408 25.5137C54.5439 24.3294 54.1455 22.957 54.1455 21.3965H59.1426C59.1426 24.0638 60.7363 25.3975 63.9238 25.3975C65.1081 25.3975 66.0322 25.1595 66.6963 24.6836C67.3604 24.1966 67.6924 23.5215 67.6924 22.6582ZM80.8164 12.9961C82.0892 11.4688 83.6885 10.7051 85.6142 10.7051C89.5101 10.7051 91.4857 12.9684 91.541 17.4951V29H86.7431V17.6279C86.7431 16.5986 86.5218 15.8405 86.0791 15.3535C85.6364 14.8555 84.9004 14.6064 83.8711 14.6064C82.4655 14.6064 81.4472 15.1488 80.8164 16.2334V29H76.0185V3.5H80.8164V12.9961ZM94.7871 19.8525C94.7871 18.0706 95.1302 16.4824 95.8164 15.0879C96.5026 13.6934 97.4876 12.6143 98.7714 11.8506C100.066 11.0869 101.566 10.7051 103.27 10.7051C105.694 10.7051 107.67 11.4466 109.197 12.9297C110.736 14.4128 111.593 16.4271 111.77 18.9727L111.804 20.2012C111.804 22.957 111.034 25.1706 109.496 26.8418C107.958 28.502 105.894 29.332 103.304 29.332C100.714 29.332 98.6442 28.502 97.0947 26.8418C95.5563 25.1816 94.7871 22.9238 94.7871 20.0684V19.8525ZM99.5849 20.2012C99.5849 21.9056 99.9059 23.2116 100.548 24.1191C101.19 25.0156 102.108 25.4639 103.304 25.4639C104.466 25.4639 105.373 25.0212 106.026 24.1357C106.679 23.2393 107.006 21.8115 107.006 19.8525C107.006 18.1813 106.679 16.8864 106.026 15.9678C105.373 15.0492 104.455 14.5898 103.27 14.5898C102.097 14.5898 101.19 15.0492 100.548 15.9678C99.9059 16.8753 99.5849 18.2865 99.5849 20.2012ZM130.755 22.4756L133.112 11.0371H137.744L133.162 29H129.144L125.741 17.6943L122.338 29H118.337L113.755 11.0371H118.387L120.727 22.459L124.015 11.0371H127.484L130.755 22.4756ZM150.237 24.0361C150.237 23.4495 149.944 22.9902 149.357 22.6582C148.782 22.3151 147.852 22.0107 146.568 21.7451C142.296 20.8486 140.16 19.0335 140.16 16.2998C140.16 14.7061 140.819 13.3779 142.136 12.3154C143.464 11.2419 145.196 10.7051 147.332 10.7051C149.612 10.7051 151.433 11.2419 152.794 12.3154C154.166 13.389 154.852 14.7835 154.852 16.499H150.055C150.055 15.8128 149.833 15.2484 149.391 14.8057C148.948 14.3519 148.256 14.125 147.315 14.125C146.507 14.125 145.882 14.3076 145.439 14.6729C144.997 15.0381 144.775 15.5029 144.775 16.0674C144.775 16.5986 145.024 17.0303 145.522 17.3623C146.031 17.6833 146.884 17.9655 148.079 18.209C149.274 18.4414 150.281 18.707 151.1 19.0059C153.635 19.9355 154.902 21.5459 154.902 23.8369C154.902 25.4749 154.199 26.8031 152.794 27.8213C151.388 28.8285 149.573 29.332 147.349 29.332C145.843 29.332 144.504 29.0664 143.331 28.5352C142.169 27.9928 141.256 27.2568 140.592 26.3271C139.928 25.3864 139.596 24.3737 139.596 23.2891H144.144C144.189 24.1413 144.504 24.7943 145.091 25.248C145.677 25.7018 146.463 25.9287 147.448 25.9287C148.367 25.9287 149.059 25.7572 149.523 25.4141C149.999 25.0599 150.237 24.6006 150.237 24.0361Z" fill="white"/>
</svg>
